<?xml version="1.0" encoding="UTF-8"?>
<svg version="1.1" xmlns="http://www.w3.org/2000/svg" width="512" height="512">
<path d="M0 0 C168.96 0 337.92 0 512 0 C512 168.96 512 337.92 512 512 C343.04 512 174.08 512 0 512 C0 343.04 0 174.08 0 0 Z " fill="#BABAED" transform="translate(0,0)"/>
<path d="M0 0 C6.52863382 2.04606445 13.09367874 3.62419764 19.78979492 5.01831055 C25.18577234 6.14244672 25.18577234 6.14244672 27.34765625 7.22338867 C27.20328125 8.07932617 27.05890625 8.93526367 26.91015625 9.81713867 C25.42687479 20.11770433 25.12367454 30.33381052 25.09765625 40.72338867 C25.09266113 41.42020752 25.08766602 42.11702637 25.08251953 42.83496094 C25.03718715 50.55143808 25.28089787 57.74519424 27.34765625 65.22338867 C27.97265625 67.97338867 27.97265625 67.97338867 27.34765625 70.22338867 C22.23960905 74.9844218 16.07626552 76.29958371 9.34765625 77.22338867 C4.80811802 66.61774183 4.80811802 66.61774183 2.99609375 61.39135742 C-2.57276946 45.43241186 -10.06269868 30.1631793 -25.65234375 22.22338867 C-34.51113365 17.97116952 -43.29628903 16.42594841 -52.8984375 19.14135742 C-62.12669189 22.70132073 -68.40066269 27.22944796 -72.65234375 36.22338867 C-75.40550601 47.29147053 -74.12454839 59.40062558 -68.4375 69.34838867 C-58.81551796 81.84302043 -41.71427942 85.74837553 -27.27734375 89.53588867 C25.23300228 103.33315376 25.23300228 103.33315376 39.78515625 125.53588867 C43.41666762 131.83347894 45.59705243 138.19497432 47.34765625 145.22338867 C47.70601562 146.44026367 48.064375 147.65713867 48.43359375 148.91088867 C49.70654401 154.0497681 49.64881483 159.14285596 49.59765625 164.41088867 C49.58943848 165.43174561 49.5812207 166.45260254 49.57275391 167.50439453 C49.3036176 185.7029284 44.9670789 199.92081167 33.34765625 214.22338867 C32.78175781 214.94139648 32.21585938 215.6594043 31.6328125 216.39916992 C19.80095149 230.7366015 3.85860478 238.3013503 -13.65234375 243.22338867 C-14.85890625 243.5662793 -16.06546875 243.90916992 -17.30859375 244.26245117 C-55.55111725 253.15799468 -98.89705585 242.43736927 -133.65234375 226.22338867 C-133.62877808 224.71832764 -133.62877808 224.71832764 -133.60473633 223.18286133 C-133.28611186 200.78183294 -133.92027333 178.79416046 -136.37695312 156.52026367 C-136.66490875 153.07296516 -136.69841676 149.68105818 -136.65234375 146.22338867 C-126.10651111 141.74939907 -116.28652309 142.27086184 -105.65234375 146.22338867 C-105.42160156 147.27655273 -105.19085938 148.3297168 -104.953125 149.41479492 C-99.52486995 173.66213345 -91.50432088 196.90121764 -70.65234375 212.22338867 C-59.25091916 219.01868835 -48.3122197 222.41638377 -35.125 219.42260742 C-25.26301665 216.01019701 -17.48059249 210.32293968 -12.58984375 200.97338867 C-8.06707253 191.12308266 -8.14594626 178.04994119 -10.453125 167.59448242 C-15.88777885 153.27015424 -27.09536404 146.13552045 -40.40234375 140.03588867 C-48.34370065 136.56544149 -56.50840736 133.67494683 -64.65234375 130.72338867 C-89.48535471 121.71749317 -112.86724337 113.17438083 -124.78125 87.82104492 C-128.09149192 79.48946984 -127.89790939 70.98283765 -127.96484375 62.16088867 C-127.99384766 60.9137207 -128.02285156 59.66655273 -128.05273438 58.3815918 C-128.16442224 41.86037978 -122.29482071 26.25532438 -110.796875 14.20776367 C-80.62446977 -13.71132896 -36.51552813 -11.50514015 0 0 Z " fill="#25258A" transform="translate(170.65234375,136.776611328125)"/>
<path d="M0 0 C26.54759558 -1.38827336 53.03325732 4.45188174 78.70751953 10.60693359 C84.92036894 12.08317495 91.15243176 13.20549371 97.46533203 14.15771484 C97.02310783 18.72736493 96.5086217 23.07818626 95.40283203 27.53271484 C91.74627601 45.39997722 95.13924386 64.11529538 101.57470703 80.88818359 C102.56196006 84.51244142 102.53370515 86.5746333 101.46533203 90.15771484 C100.15283203 91.98583984 100.15283203 91.98583984 98.46533203 93.40771484 C97.92908203 93.88724609 97.39283203 94.36677734 96.84033203 94.86083984 C93.26391114 96.81375388 89.44622952 97.41554966 85.46533203 98.15771484 C85.22000732 97.61058838 84.97468262 97.06346191 84.72192383 96.49975586 C78.91812345 83.6660001 72.60321208 71.66451806 64.46533203 60.15771484 C63.82313721 59.24505859 63.82313721 59.24505859 63.16796875 58.31396484 C51.32575961 41.69204144 35.98662357 29.68002608 15.46533203 26.15771484 C-1.02656746 24.25905432 -14.39256977 29.0060342 -27.53466797 39.15771484 C-38.70839698 48.04390878 -45.02232619 61.97058581 -49.53466797 75.15771484 C-49.76138184 75.80015137 -49.9880957 76.44258789 -50.22167969 77.10449219 C-58.32032895 100.44085699 -61.13686845 128.98822132 -55.53466797 153.15771484 C-55.27814453 154.32689453 -55.02162109 155.49607422 -54.75732422 156.70068359 C-49.58228626 178.13378071 -39.26691052 198.09268242 -20.34716797 210.40771484 C-2.54832852 220.8580276 18.88488119 224.60043053 39.02783203 219.47021484 C54.78830022 215.08935893 66.86499019 207.66431655 78.46533203 196.15771484 C78.79533203 195.49771484 79.12533203 194.83771484 79.46533203 194.15771484 C85.33580954 194.36369651 88.82375511 195.27511349 93.09423828 199.42724609 C95.52820636 202.49917732 95.86146333 204.26242373 95.46533203 208.15771484 C93.58349533 211.57746636 91.10718369 214.3017821 88.46533203 217.15771484 C87.67642578 218.03814453 86.88751953 218.91857422 86.07470703 219.82568359 C75.09941428 231.47460958 62.06184998 238.92117281 47.46533203 245.15771484 C46.61841797 245.54572266 45.77150391 245.93373047 44.89892578 246.33349609 C37.10069069 249.75099675 28.75448097 251.36887115 20.46533203 253.15771484 C19.69624512 253.33496094 18.9271582 253.51220703 18.13476562 253.69482422 C-14.76816881 259.40032666 -49.60232159 249.05899983 -76.65576172 230.36083984 C-81.94986877 226.3094472 -86.73552685 221.77496432 -91.53466797 217.15771484 C-92.19208984 216.57505859 -92.84951172 215.99240234 -93.52685547 215.39208984 C-111.95104934 198.58107423 -121.94586124 167.41705795 -123.53466797 143.15771484 C-124.2855624 124.55924545 -124.28329344 106.27818872 -119.53466797 88.15771484 C-119.35274902 87.46097656 -119.17083008 86.76423828 -118.98339844 86.04638672 C-110.78546424 56.06788206 -91.86717592 33.26914659 -65.32519531 17.77978516 C-44.80019727 6.29452998 -23.26380241 1.4475454 0 0 Z " fill="#B8B8EC" transform="translate(376.53466796875,128.84228515625)"/>
<path d="M0 0 C26.54759558 -1.38827336 53.03325732 4.45188174 78.70751953 10.60693359 C84.92036894 12.08317495 91.15243176 13.20549371 97.46533203 14.15771484 C97.02310783 18.72736493 96.5086217 23.07818626 95.40283203 27.53271484 C91.74627601 45.39997722 95.13924386 64.11529538 101.57470703 80.88818359 C102.56196006 84.51244142 102.53370515 86.5746333 101.46533203 90.15771484 C100.15283203 91.98583984 100.15283203 91.98583984 98.46533203 93.40771484 C97.92908203 93.88724609 97.39283203 94.36677734 96.84033203 94.86083984 C93.26391114 96.81375388 89.44622952 97.41554966 85.46533203 98.15771484 C85.22000732 97.61058838 84.97468262 97.06346191 84.72192383 96.49975586 C78.91812345 83.6660001 72.60321208 71.66451806 64.46533203 60.15771484 C63.82313721 59.24505859 63.82313721 59.24505859 63.16796875 58.31396484 C51.32575961 41.69204144 35.98662357 29.68002608 15.46533203 26.15771484 C-1.02656746 24.25905432 -14.39256977 29.0060342 -27.53466797 39.15771484 C-38.70839698 48.04390878 -45.02232619 61.97058581 -49.53466797 75.15771484 C-49.76138184 75.80015137 -49.9880957 76.44258789 -50.22167969 77.10449219 C-58.32032895 100.44085699 -61.13686845 128.98822132 -55.53466797 153.15771484 C-55.27814453 154.32689453 -55.02162109 155.49607422 -54.75732422 156.70068359 C-49.58228626 178.13378071 -39.26691052 198.09268242 -20.34716797 210.40771484 C-2.54832852 220.8580276 18.88488119 224.60043053 39.02783203 219.47021484 C54.78830022 215.08935893 66.86499019 207.66431655 78.46533203 196.15771484 C78.79533203 195.49771484 79.12533203 194.83771484 79.46533203 194.15771484 C85.33580954 194.36369651 88.82375511 195.27511349 93.09423828 199.42724609 C95.52820636 202.49917732 95.86146333 204.26242373 95.46533203 208.15771484 C93.58349533 211.57746636 91.10718369 214.3017821 88.46533203 217.15771484 C87.67642578 218.03814453 86.88751953 218.91857422 86.07470703 219.82568359 C75.09941428 231.47460958 62.06184998 238.92117281 47.46533203 245.15771484 C46.61841797 245.54572266 45.77150391 245.93373047 44.89892578 246.33349609 C37.10069069 249.75099675 28.75448097 251.36887115 20.46533203 253.15771484 C19.69624512 253.33496094 18.9271582 253.51220703 18.13476562 253.69482422 C-14.76816881 259.40032666 -49.60232159 249.05899983 -76.65576172 230.36083984 C-81.94986877 226.3094472 -86.73552685 221.77496432 -91.53466797 217.15771484 C-92.19208984 216.57505859 -92.84951172 215.99240234 -93.52685547 215.39208984 C-111.95104934 198.58107423 -121.94586124 167.41705795 -123.53466797 143.15771484 C-124.2855624 124.55924545 -124.28329344 106.27818872 -119.53466797 88.15771484 C-119.35274902 87.46097656 -119.17083008 86.76423828 -118.98339844 86.04638672 C-110.78546424 56.06788206 -91.86717592 33.26914659 -65.32519531 17.77978516 C-44.80019727 6.29452998 -23.26380241 1.4475454 0 0 Z M-90.22998047 45.44287109 C-100.6047593 57.66400886 -108.12818145 72.83796732 -112.53466797 88.15771484 C-112.94845703 89.53443359 -112.94845703 89.53443359 -113.37060547 90.93896484 C-122.5277672 123.94101306 -118.27617646 161.85307614 -102.53466797 192.15771484 C-93.39623076 208.02383589 -80.35668866 221.01156611 -64.53466797 230.15771484 C-63.40158203 230.81771484 -62.26849609 231.47771484 -61.10107422 232.15771484 C-33.36600247 247.85070919 0.13451643 252.93345039 31.07519531 244.44140625 C53.1852482 237.71046322 76.49751555 226.23981953 89.46533203 206.15771484 C89.6319987 203.99104818 89.6319987 203.99104818 88.46533203 202.15771484 C86.81985954 201.44032897 85.15310117 200.7689902 83.46533203 200.15771484 C82.62615234 201.08390625 82.62615234 201.08390625 81.77001953 202.02880859 C70.12946556 214.32437766 57.66147025 220.762562 41.46533203 225.15771484 C40.23041016 225.49802734 38.99548828 225.83833984 37.72314453 226.18896484 C11.48390593 232.38992276 -18.39769118 227.65650337 -41.53466797 214.15771484 C-63.13621145 199.02833676 -74.83972521 175.21053171 -80.21826172 149.94677734 C-82.93681217 134.16043612 -82.12304538 117.88990949 -79.53466797 102.15771484 C-79.42509766 101.14580078 -79.31552734 100.13388672 -79.20263672 99.09130859 C-76.56677754 76.41133346 -66.3613483 52.76859457 -49.53466797 37.15771484 C-48.74576172 36.41263672 -47.95685547 35.66755859 -47.14404297 34.89990234 C-30.36374938 20.28660031 -9.84240863 18.38199112 11.46533203 19.15771484 C30.23830629 20.45902329 48.90525071 30.36803292 61.46533203 44.15771484 C73.36359854 58.24444073 81.40688226 74.70504656 89.46533203 91.15771484 C92.756092 90.77867277 92.756092 90.77867277 95.46533203 89.15771484 C93.82334146 66.55468842 81.09933322 41.89080233 64.71533203 26.34521484 C54.87056375 18.39443004 43.62214089 13.40548976 31.46533203 10.15771484 C30.54107422 9.89877441 29.61681641 9.63983398 28.66455078 9.37304688 C19.96196504 7.12103847 11.5288901 6.59874483 2.59033203 6.65771484 C1.87288818 6.65947723 1.15544434 6.66123962 0.41625977 6.66305542 C-34.26313272 6.85186459 -66.09808195 20.40108132 -90.22998047 45.44287109 Z " fill="#25258A" transform="translate(376.53466796875,128.84228515625)"/>
<path d="M0 0 C1.01835937 0.42410156 2.03671875 0.84820312 3.0859375 1.28515625 C18.22023083 8.12799165 27.569798 20.03252416 34 35 C35.53242778 39.28679145 36.82303597 43.60336035 38 48 C38.3403125 49.23943359 38.3403125 49.23943359 38.6875 50.50390625 C40.00341718 55.75843666 40.17178704 60.58870831 40 66 C37.03 66.495 37.03 66.495 34 67 C33.79431396 66.43192627 33.58862793 65.86385254 33.37670898 65.27856445 C25.22622173 42.9240398 16.59089108 22.3660264 -5.8125 11.2265625 C-13.23972165 8.36853848 -20.39584489 7.6367057 -28.3125 7.6875 C-29.23530762 7.69313965 -30.15811523 7.6987793 -31.10888672 7.70458984 C-44.48408147 7.94204716 -56.250964 11.44170054 -66.3125 20.625 C-75.83773028 30.77740593 -77.48064655 41.9285944 -77.27734375 55.14453125 C-76.80424158 67.30160947 -71.50838326 75.80668471 -63 84.0625 C-52.30917842 93.1004643 -38.72938995 97.03212394 -25.7421875 101.609375 C18.68900962 117.28792517 18.68900962 117.28792517 32 131 C32.57105469 131.55042969 33.14210937 132.10085938 33.73046875 132.66796875 C43.21868033 142.54644096 46.40292352 156.48099433 46.3125 169.75 C46.30686035 170.62398437 46.3012207 171.49796875 46.29541016 172.3984375 C45.99130835 188.72960779 40.71086681 202.51272874 29.125 214.171875 C18.82013681 223.88374734 5.7120869 229.71721321 -7.6875 233.75 C-8.3885083 233.96108398 -9.0895166 234.17216797 -9.81176758 234.38964844 C-26.94787804 239.30123393 -45.81160276 237.93778196 -63 234 C-63.66161133 233.85546387 -64.32322266 233.71092773 -65.00488281 233.56201172 C-72.78193992 231.84999744 -80.35105835 229.67061011 -87.875 227.0625 C-88.54015625 226.83393311 -89.2053125 226.60536621 -89.890625 226.36987305 C-95.48712238 224.36035997 -100.72587377 221.73455659 -106 219 C-106.01981934 217.84290527 -106.03963867 216.68581055 -106.06005859 215.49365234 C-106.43409518 187.25585308 -106.43409518 187.25585308 -108.59765625 159.1171875 C-109.05022398 155.05842999 -109.06942067 151.08193513 -109 147 C-106.69 147 -104.38 147 -102 147 C-101.89042969 147.57218262 -101.78085938 148.14436523 -101.66796875 148.73388672 C-98.98915504 162.37024635 -95.34972251 174.62364574 -89 187 C-88.27683594 188.44246094 -88.27683594 188.44246094 -87.5390625 189.9140625 C-78.59553689 206.19851665 -62.89044748 218.37116996 -45.13183594 223.54418945 C-41.08003625 224.41050989 -36.93989294 224.18463176 -32.8125 224.1875 C-31.90435547 224.19974609 -30.99621094 224.21199219 -30.06054688 224.22460938 C-15.86035594 224.2551037 -3.45914343 220.02667189 6.91015625 210.1875 C11.51644201 205.33671924 13.9827896 200.33843837 16 194 C16.35835938 192.89140625 16.71671875 191.7828125 17.0859375 190.640625 C20.09763011 178.64533649 18.23627245 164.75085507 12.1953125 153.921875 C11.60363281 152.97054687 11.60363281 152.97054687 11 152 C10.56429687 151.28328125 10.12859375 150.5665625 9.6796875 149.828125 C-2.41056443 132.2091649 -28.80046257 125.51711374 -47.75 118.5 C-56.35481534 115.30205478 -64.7412889 111.95843301 -72.875 107.6875 C-73.97859863 107.11128906 -73.97859863 107.11128906 -75.10449219 106.5234375 C-86.54087732 100.25898936 -94.88158013 90.47237107 -99 78 C-102.97491447 63.86656781 -102.85359388 47.53643585 -97 34 C-96.649375 33.12472656 -96.29875 32.24945313 -95.9375 31.34765625 C-89.26506947 16.31151939 -75.74054476 7.11653647 -61 1 C-42.69724497 -5.41659416 -18.08760172 -8.17763402 0 0 Z " fill="#B8B8EC" transform="translate(150,140)"/>
</svg>
